<svg width="230" height="57" viewBox="0 0 230 57" fill="none" xmlns="http://www.w3.org/2000/svg">
<rect x="0.5" y="0.5" width="229" height="56" fill="white" stroke="white"/>
<path d="M56.588 36.18C55.604 36.18 54.71 35.994 53.906 35.622C53.102 35.238 52.466 34.662 51.998 33.894C51.53 33.126 51.296 32.16 51.296 30.996V22.68H53.744V30.996C53.744 31.812 53.972 32.496 54.428 33.048C54.896 33.6 55.616 33.876 56.588 33.876C57.572 33.876 58.298 33.6 58.766 33.048C59.234 32.496 59.468 31.812 59.468 30.996V22.68H61.898V30.996C61.898 32.16 61.664 33.126 61.196 33.894C60.728 34.662 60.092 35.238 59.288 35.622C58.496 35.994 57.596 36.18 56.588 36.18ZM64.4972 36V22.68H66.7292L72.8492 31.716V22.68H75.2792V36H73.0472L66.9272 27.126V36H64.4972ZM77.2081 36L81.7981 22.68H84.9841L89.5921 36H87.0361L86.0821 33.192H80.7181L79.7641 36H77.2081ZM81.4201 31.068H85.3801L83.4001 25.182L81.4201 31.068ZM93.6579 36L89.0679 22.68H91.6239L95.2599 33.516L98.8959 22.68H101.452L96.8439 36H93.6579ZM101.009 36L105.599 22.68H108.785L113.393 36H110.837L109.883 33.192H104.519L103.565 36H101.009ZM105.221 31.068H109.181L107.201 25.182L105.221 31.068ZM115.316 36V22.68H117.764V36H115.316ZM120.36 36V22.68H122.808V33.876H129.432V36H120.36ZM131.155 36L135.745 22.68H138.931L143.539 36H140.983L140.029 33.192H134.665L133.711 36H131.155ZM135.367 31.068H139.327L137.347 25.182L135.367 31.068ZM145.462 36V22.68H151.276C152.128 22.68 152.854 22.83 153.454 23.13C154.054 23.43 154.51 23.832 154.822 24.336C155.146 24.84 155.308 25.392 155.308 25.992C155.308 26.604 155.194 27.108 154.966 27.504C154.75 27.9 154.486 28.212 154.174 28.44C153.874 28.656 153.598 28.806 153.346 28.89V29.016C153.658 29.1 154.006 29.262 154.39 29.502C154.786 29.742 155.128 30.084 155.416 30.528C155.704 30.96 155.848 31.524 155.848 32.22C155.848 32.844 155.698 33.45 155.398 34.038C155.098 34.614 154.624 35.088 153.976 35.46C153.328 35.82 152.47 36 151.402 36H145.462ZM150.952 24.75H147.91V28.224H150.952C151.648 28.224 152.152 28.05 152.464 27.702C152.776 27.354 152.932 26.946 152.932 26.478C152.932 26.022 152.776 25.62 152.464 25.272C152.152 24.924 151.648 24.75 150.952 24.75ZM151.132 30.096H147.91V33.93H151.132C151.924 33.93 152.5 33.738 152.86 33.354C153.22 32.97 153.4 32.52 153.4 32.004C153.4 31.5 153.22 31.056 152.86 30.672C152.5 30.288 151.924 30.096 151.132 30.096ZM158.03 36V22.68H160.478V33.876H167.102V36H158.03ZM169.491 36V22.68H178.419V24.804H171.939V28.188H177.609V30.258H171.939V33.876H178.509V36H169.491Z" fill="black" fill-opacity="0.91"/>
</svg>
