<svg width="130" height="53" viewBox="0 0 130 53" fill="none" xmlns="http://www.w3.org/2000/svg">
<path d="M3.05176 12.7666C3.03548 12.3434 3.07617 12.0016 3.17383 11.7412C3.27148 11.4808 3.47493 11.2773 3.78418 11.1309C4.1097 10.9844 4.56543 10.8867 5.15137 10.8379C5.7373 10.7728 6.51855 10.7402 7.49512 10.7402H8.10547H13.6719C15.3483 10.7402 16.9027 10.8949 18.335 11.2041C19.7835 11.4971 21.0368 11.9691 22.0947 12.6201C23.1527 13.2549 23.9746 14.0768 24.5605 15.0859C25.1628 16.0788 25.4395 17.2832 25.3906 18.6992L25.0732 30.2959C25.057 30.9144 24.9593 31.541 24.7803 32.1758C24.6175 32.8105 24.3571 33.4209 23.999 34.0068C23.641 34.5765 23.1771 35.1136 22.6074 35.6182C22.054 36.1227 21.3704 36.5622 20.5566 36.9365L25.1221 48.5332C25.3499 49.1191 25.5208 49.5993 25.6348 49.9736C25.765 50.3317 25.8301 50.641 25.8301 50.9014C25.8301 51.0967 25.7975 51.2676 25.7324 51.4141C25.6673 51.5443 25.5208 51.6582 25.293 51.7559C25.0814 51.8372 24.7721 51.9023 24.3652 51.9512C23.9583 51.9837 23.4212 52 22.7539 52C22.1029 52 21.5739 51.9756 21.167 51.9268C20.7764 51.8617 20.4508 51.7559 20.1904 51.6094C19.93 51.4629 19.7103 51.2676 19.5312 51.0234C19.3685 50.763 19.1895 50.4375 18.9941 50.0469L13.8916 38.084H11.2061L10.8643 50.3398C10.8643 50.7142 10.8236 51.0153 10.7422 51.2432C10.6771 51.4548 10.5225 51.6175 10.2783 51.7314C10.0505 51.8454 9.7168 51.9186 9.27734 51.9512C8.83789 51.9837 8.24382 52 7.49512 52C6.74642 52 6.14421 51.9837 5.68848 51.9512C5.24902 51.9186 4.91536 51.8454 4.6875 51.7314C4.45964 51.6175 4.30501 51.4548 4.22363 51.2432C4.15853 51.0153 4.11784 50.7142 4.10156 50.3398L3.05176 12.7666ZM13.1592 34.1045C13.9404 34.1045 14.5915 34.0475 15.1123 33.9336C15.6331 33.8034 16.04 33.5999 16.333 33.3232C16.6423 33.0465 16.8538 32.6803 16.9678 32.2246C17.098 31.7526 17.1549 31.1748 17.1387 30.4912L16.7969 17.918C16.7806 17.2832 16.7155 16.7786 16.6016 16.4043C16.4876 16.0137 16.2842 15.7126 15.9912 15.501C15.6982 15.2894 15.2995 15.151 14.7949 15.0859C14.3066 15.0046 13.6719 14.9639 12.8906 14.9639H11.8652L11.3281 34.1045H13.1592ZM30.542 29.7832C30.4932 28.4811 30.7617 27.3662 31.3477 26.4385C31.9499 25.4945 32.7474 24.7214 33.7402 24.1191C34.7493 23.5169 35.8968 23.0775 37.1826 22.8008C38.4847 22.5078 39.8112 22.3613 41.1621 22.3613C42.4479 22.3613 43.7093 22.5078 44.9463 22.8008C46.1833 23.0775 47.2819 23.5169 48.2422 24.1191C49.2025 24.7214 49.9593 25.4945 50.5127 26.4385C51.0824 27.3662 51.3428 28.4811 51.2939 29.7832L50.9277 38.792C50.9115 39.1012 50.8545 39.3454 50.7568 39.5244C50.6755 39.7035 50.5127 39.8418 50.2686 39.9395C50.0244 40.0371 49.6745 40.1022 49.2188 40.1348C48.7793 40.1673 48.1934 40.1836 47.4609 40.1836H37.9395L37.793 45.457C37.7767 46.0755 37.8337 46.5964 37.9639 47.0195C38.1104 47.4427 38.3219 47.7845 38.5986 48.0449C38.8753 48.3053 39.2171 48.4925 39.624 48.6064C40.0309 48.7204 40.4948 48.7773 41.0156 48.7773C42.0573 48.7773 42.8223 48.5495 43.3105 48.0938C43.7988 47.638 44.043 46.8324 44.043 45.6768V44.9199C44.043 44.6107 44.0837 44.3584 44.165 44.1631C44.2464 43.9515 44.401 43.7887 44.6289 43.6748C44.873 43.5446 45.2148 43.4551 45.6543 43.4062C46.0938 43.3574 46.6797 43.333 47.4121 43.333C48.1283 43.333 48.7061 43.3574 49.1455 43.4062C49.585 43.4551 49.9186 43.5446 50.1465 43.6748C50.3906 43.7887 50.5452 43.9434 50.6104 44.1387C50.6917 44.334 50.7324 44.5863 50.7324 44.8955V45.9697C50.7324 47.2555 50.4557 48.3053 49.9023 49.1191C49.349 49.9329 48.6165 50.5758 47.7051 51.0479C46.8099 51.5199 45.7764 51.8454 44.6045 52.0244C43.4489 52.2035 42.2607 52.293 41.04 52.293C39.8031 52.293 38.5986 52.179 37.4268 51.9512C36.2549 51.707 35.2051 51.3164 34.2773 50.7793C33.3659 50.2259 32.6172 49.5016 32.0312 48.6064C31.4616 47.7113 31.1523 46.5964 31.1035 45.2617L30.542 29.7832ZM44.043 36.5215L43.7988 29.3682C43.7826 28.6846 43.7012 28.1312 43.5547 27.708C43.4245 27.2848 43.2373 26.9593 42.9932 26.7314C42.7653 26.5036 42.4886 26.3571 42.1631 26.292C41.8538 26.2106 41.5202 26.1699 41.1621 26.1699C40.7552 26.1699 40.3809 26.2106 40.0391 26.292C39.6973 26.3571 39.3962 26.5036 39.1357 26.7314C38.8916 26.9593 38.6882 27.2848 38.5254 27.708C38.3789 28.1312 38.2975 28.6846 38.2812 29.3682L38.0615 36.5215H44.043ZM56.7139 24.4365C56.7139 24.0947 56.7464 23.8099 56.8115 23.582C56.8929 23.3379 57.0557 23.1507 57.2998 23.0205C57.5602 22.8903 57.9346 22.8008 58.4229 22.752C58.9274 22.6868 59.5947 22.6543 60.4248 22.6543C61.2549 22.6543 61.9141 22.6868 62.4023 22.752C62.9069 22.8008 63.2812 22.8903 63.5254 23.0205C63.7858 23.1507 63.9486 23.3379 64.0137 23.582C64.0951 23.8099 64.1357 24.0947 64.1357 24.4365L64.0869 25.9258C64.5426 25.4049 65.0065 24.9329 65.4785 24.5098C65.9668 24.0703 66.4795 23.696 67.0166 23.3867C67.57 23.0612 68.1559 22.8089 68.7744 22.6299C69.3929 22.4508 70.0684 22.3613 70.8008 22.3613C71.7936 22.3613 72.7132 22.5404 73.5596 22.8984C74.4222 23.2565 75.1546 23.7773 75.7568 24.4609C76.3753 25.1445 76.8473 25.9746 77.1729 26.9512C77.5146 27.9277 77.6693 29.0345 77.6367 30.2715L77.0508 50.6084C77.0508 50.9176 77.0101 51.1618 76.9287 51.3408C76.8473 51.5199 76.6927 51.6582 76.4648 51.7559C76.237 51.8535 75.9115 51.9186 75.4883 51.9512C75.0814 51.9837 74.5361 52 73.8525 52C73.1689 52 72.6156 51.9837 72.1924 51.9512C71.7855 51.9186 71.4681 51.8535 71.2402 51.7559C71.0286 51.6582 70.8822 51.5199 70.8008 51.3408C70.7194 51.1618 70.6787 50.9176 70.6787 50.6084L70.1172 30.9795C70.1009 30.3447 70.0195 29.8158 69.873 29.3926C69.7266 28.9694 69.5312 28.6357 69.2871 28.3916C69.043 28.1475 68.75 27.9766 68.4082 27.8789C68.0827 27.7812 67.7246 27.7324 67.334 27.7324C66.7155 27.7324 66.1702 27.9033 65.6982 28.2451C65.2262 28.5869 64.8193 28.9938 64.4775 29.4658L63.8672 50.6084C63.8672 50.9176 63.8265 51.1618 63.7451 51.3408C63.6637 51.5199 63.5091 51.6582 63.2812 51.7559C63.0534 51.8535 62.7279 51.9186 62.3047 51.9512C61.8978 51.9837 61.3525 52 60.6689 52C59.9854 52 59.432 51.9837 59.0088 51.9512C58.6019 51.9186 58.2845 51.8535 58.0566 51.7559C57.8451 51.6582 57.6986 51.5199 57.6172 51.3408C57.5358 51.1618 57.4951 50.9176 57.4951 50.6084L56.7139 24.4365ZM84.2285 29.3926H82.8613C82.4382 29.3926 82.1045 29.36 81.8604 29.2949C81.6325 29.2298 81.4616 29.1077 81.3477 28.9287C81.2337 28.7497 81.1605 28.5055 81.1279 28.1963C81.1117 27.8708 81.1035 27.4557 81.1035 26.9512C81.1035 26.4954 81.1117 26.1292 81.1279 25.8525C81.1605 25.5596 81.2337 25.3317 81.3477 25.1689C81.4616 25.0062 81.6325 24.9004 81.8604 24.8516C82.1045 24.7865 82.4382 24.7539 82.8613 24.7539H84.1064L83.96 17.9424C83.96 17.6006 83.9925 17.3158 84.0576 17.0879C84.139 16.8438 84.318 16.6566 84.5947 16.5264C84.8714 16.3962 85.2702 16.3066 85.791 16.2578C86.3281 16.1927 87.0361 16.1602 87.915 16.1602C88.7939 16.1602 89.4938 16.1927 90.0146 16.2578C90.5518 16.3066 90.9587 16.3962 91.2354 16.5264C91.512 16.6566 91.6829 16.8438 91.748 17.0879C91.8294 17.3158 91.8701 17.6006 91.8701 17.9424L91.6992 24.7539H92.9688C93.3919 24.7539 93.7174 24.7865 93.9453 24.8516C94.1895 24.9004 94.3685 25.0062 94.4824 25.1689C94.5964 25.3317 94.6615 25.5596 94.6777 25.8525C94.7103 26.1292 94.7266 26.4954 94.7266 26.9512C94.7266 27.4557 94.7103 27.8708 94.6777 28.1963C94.6615 28.5055 94.5964 28.7497 94.4824 28.9287C94.3685 29.1077 94.1895 29.2298 93.9453 29.2949C93.7174 29.36 93.3919 29.3926 92.9688 29.3926H91.6016L91.1133 50.6084C91.1133 50.9176 91.0726 51.1618 90.9912 51.3408C90.9098 51.5199 90.7552 51.6582 90.5273 51.7559C90.2995 51.8535 89.974 51.9186 89.5508 51.9512C89.1439 51.9837 88.5986 52 87.915 52C87.2314 52 86.6781 51.9837 86.2549 51.9512C85.848 51.9186 85.5306 51.8535 85.3027 51.7559C85.0911 51.6582 84.9447 51.5199 84.8633 51.3408C84.7819 51.1618 84.7412 50.9176 84.7412 50.6084L84.2285 29.3926Z" fill="#FF5E03"/>
<path d="M104.056 18.7969C103.258 18.7969 102.615 18.7806 102.127 18.748C101.655 18.7155 101.289 18.6504 101.028 18.5527C100.784 18.4551 100.613 18.3167 100.516 18.1377C100.434 17.9587 100.394 17.7145 100.394 17.4053L100.101 12.6445C100.101 12.3027 100.133 12.0179 100.198 11.79C100.28 11.5459 100.459 11.3587 100.735 11.2285C101.012 11.0983 101.411 11.0088 101.932 10.96C102.469 10.8949 103.177 10.8623 104.056 10.8623C104.935 10.8623 105.634 10.8949 106.155 10.96C106.692 11.0088 107.099 11.0983 107.376 11.2285C107.653 11.3587 107.824 11.5459 107.889 11.79C107.97 12.0179 108.011 12.3027 108.011 12.6445L107.742 17.4053C107.742 17.7145 107.693 17.9587 107.596 18.1377C107.514 18.3167 107.343 18.4551 107.083 18.5527C106.823 18.6504 106.448 18.7155 105.96 18.748C105.488 18.7806 104.853 18.7969 104.056 18.7969ZM99.9541 24.4365C99.9541 24.0947 99.9867 23.8099 100.052 23.582C100.133 23.3379 100.312 23.1507 100.589 23.0205C100.866 22.8903 101.264 22.8008 101.785 22.752C102.322 22.6868 103.03 22.6543 103.909 22.6543C104.788 22.6543 105.488 22.6868 106.009 22.752C106.546 22.8008 106.953 22.8903 107.229 23.0205C107.506 23.1507 107.677 23.3379 107.742 23.582C107.824 23.8099 107.864 24.0947 107.864 24.4365L107.107 50.6084C107.107 50.9176 107.067 51.1618 106.985 51.3408C106.904 51.5199 106.749 51.6582 106.521 51.7559C106.294 51.8535 105.968 51.9186 105.545 51.9512C105.138 51.9837 104.593 52 103.909 52C103.226 52 102.672 51.9837 102.249 51.9512C101.842 51.9186 101.525 51.8535 101.297 51.7559C101.085 51.6582 100.939 51.5199 100.857 51.3408C100.776 51.1618 100.735 50.9176 100.735 50.6084L99.9541 24.4365ZM114.969 29.3926H113.602C113.178 29.3926 112.845 29.36 112.601 29.2949C112.373 29.2298 112.202 29.1077 112.088 28.9287C111.974 28.7497 111.901 28.5055 111.868 28.1963C111.852 27.8708 111.844 27.4557 111.844 26.9512C111.844 26.4954 111.852 26.1292 111.868 25.8525C111.901 25.5596 111.974 25.3317 112.088 25.1689C112.202 25.0062 112.373 24.9004 112.601 24.8516C112.845 24.7865 113.178 24.7539 113.602 24.7539H114.847L114.7 17.9424C114.7 17.6006 114.733 17.3158 114.798 17.0879C114.879 16.8438 115.058 16.6566 115.335 16.5264C115.612 16.3962 116.01 16.3066 116.531 16.2578C117.068 16.1927 117.776 16.1602 118.655 16.1602C119.534 16.1602 120.234 16.1927 120.755 16.2578C121.292 16.3066 121.699 16.3962 121.976 16.5264C122.252 16.6566 122.423 16.8438 122.488 17.0879C122.57 17.3158 122.61 17.6006 122.61 17.9424L122.439 24.7539H123.709C124.132 24.7539 124.458 24.7865 124.686 24.8516C124.93 24.9004 125.109 25.0062 125.223 25.1689C125.337 25.3317 125.402 25.5596 125.418 25.8525C125.451 26.1292 125.467 26.4954 125.467 26.9512C125.467 27.4557 125.451 27.8708 125.418 28.1963C125.402 28.5055 125.337 28.7497 125.223 28.9287C125.109 29.1077 124.93 29.2298 124.686 29.2949C124.458 29.36 124.132 29.3926 123.709 29.3926H122.342L121.854 50.6084C121.854 50.9176 121.813 51.1618 121.731 51.3408C121.65 51.5199 121.495 51.6582 121.268 51.7559C121.04 51.8535 120.714 51.9186 120.291 51.9512C119.884 51.9837 119.339 52 118.655 52C117.972 52 117.418 51.9837 116.995 51.9512C116.588 51.9186 116.271 51.8535 116.043 51.7559C115.831 51.6582 115.685 51.5199 115.604 51.3408C115.522 51.1618 115.481 50.9176 115.481 50.6084L114.969 29.3926Z" fill="#1C1C1C"/>
</svg>
