<svg width="230" height="57" viewBox="0 0 230 57" fill="none" xmlns="http://www.w3.org/2000/svg">
<rect width="230" height="57" fill="white"/>
<path d="M54.32 35.2C53.2267 35.2 52.2333 34.9933 51.34 34.58C50.4467 34.1533 49.74 33.5133 49.22 32.66C48.7 31.8067 48.44 30.7333 48.44 29.44V20.2H51.16V29.44C51.16 30.3467 51.4133 31.1067 51.92 31.72C52.44 32.3333 53.24 32.64 54.32 32.64C55.4133 32.64 56.22 32.3333 56.74 31.72C57.26 31.1067 57.52 30.3467 57.52 29.44V20.2H60.22V29.44C60.22 30.7333 59.96 31.8067 59.44 32.66C58.92 33.5133 58.2133 34.1533 57.32 34.58C56.44 34.9933 55.44 35.2 54.32 35.2ZM63.108 35V20.2H65.588L72.388 30.24V20.2H75.088V35H72.608L65.808 25.14V35H63.108ZM77.2313 35L82.3313 20.2H85.8713L90.9913 35H88.1513L87.0912 31.88H81.1313L80.0713 35H77.2313ZM81.9113 29.52H86.3113L84.1113 22.98L81.9113 29.52ZM95.5088 35L90.4088 20.2H93.2488L97.2888 32.24L101.329 20.2H104.169L99.0488 35H95.5088ZM103.677 35L108.777 20.2H112.317L117.437 35H114.597L113.537 31.88H107.577L106.517 35H103.677ZM108.357 29.52H112.757L110.557 22.98L108.357 29.52ZM119.573 35V20.2H122.293V35H119.573ZM125.178 35V20.2H127.898V32.64H135.258V35H125.178ZM137.173 35L142.273 20.2H145.813L150.933 35H148.093L147.033 31.88H141.073L140.013 35H137.173ZM141.853 29.52H146.253L144.053 22.98L141.853 29.52ZM153.069 35V20.2H159.529C160.476 20.2 161.282 20.3667 161.949 20.7C162.616 21.0333 163.122 21.48 163.469 22.04C163.829 22.6 164.009 23.2133 164.009 23.88C164.009 24.56 163.882 25.12 163.629 25.56C163.389 26 163.096 26.3467 162.749 26.6C162.416 26.84 162.109 27.0067 161.829 27.1V27.24C162.176 27.3333 162.562 27.5133 162.989 27.78C163.429 28.0467 163.809 28.4267 164.129 28.92C164.449 29.4 164.609 30.0267 164.609 30.8C164.609 31.4933 164.442 32.1667 164.109 32.82C163.776 33.46 163.249 33.9867 162.529 34.4C161.809 34.8 160.856 35 159.669 35H153.069ZM159.169 22.5H155.789V26.36H159.169C159.942 26.36 160.502 26.1667 160.849 25.78C161.196 25.3933 161.369 24.94 161.369 24.42C161.369 23.9133 161.196 23.4667 160.849 23.08C160.502 22.6933 159.942 22.5 159.169 22.5ZM159.369 28.44H155.789V32.7H159.369C160.249 32.7 160.889 32.4867 161.289 32.06C161.689 31.6333 161.889 31.1333 161.889 30.56C161.889 30 161.689 29.5067 161.289 29.08C160.889 28.6533 160.249 28.44 159.369 28.44ZM167.034 35V20.2H169.754V32.64H177.114V35H167.034ZM179.768 35V20.2H189.688V22.56H182.488V26.32H188.788V28.62H182.488V32.64H189.788V35H179.768Z" fill="black" fill-opacity="0.91"/>
</svg>
