<svg width="219" height="219" viewBox="0 0 219 219" fill="none" xmlns="http://www.w3.org/2000/svg">
<g clip-path="url(#clip0_307_72)">
<path d="M47.5 21C53.299 21 58 16.299 58 10.5C58 4.70101 53.299 0 47.5 0C41.701 0 37 4.70101 37 10.5C37 16.299 41.701 21 47.5 21Z" fill="#D9D9D9"/>
<path d="M173.5 21C179.299 21 184 16.299 184 10.5C184 4.70101 179.299 0 173.5 0C167.701 0 163 4.70101 163 10.5C163 16.299 167.701 21 173.5 21Z" fill="#D9D9D9"/>
<path d="M109.5 204C155.063 204 192 167.063 192 121.5C192 75.9365 155.063 39 109.5 39C63.9365 39 27 75.9365 27 121.5C27 167.063 63.9365 204 109.5 204Z" fill="#D9D9D9"/>
<path d="M219 98H0V219H219V98Z" fill="white"/>
<path d="M40.75 108C46.1348 108 50.5 103.747 50.5 98.5C50.5 93.2533 46.1348 89 40.75 89C35.3652 89 31 93.2533 31 98.5C31 103.747 35.3652 108 40.75 108Z" fill="#D9D9D9"/>
<path d="M178.75 108C184.135 108 188.5 103.747 188.5 98.5C188.5 93.2533 184.135 89 178.75 89C173.365 89 169 93.2533 169 98.5C169 103.747 173.365 108 178.75 108Z" fill="#D9D9D9"/>
<path d="M110 189C145.899 189 175 159.899 175 124C175 88.1015 145.899 59 110 59C74.1015 59 45 88.1015 45 124C45 159.899 74.1015 189 110 189Z" fill="white"/>
</g>
<defs>
<clipPath id="clip0_307_72">
<rect width="219" height="219" fill="white"/>
</clipPath>
</defs>
</svg>
